<?xml version="1.0" encoding="UTF-8" standalone="no"?>
<!-- Created with Inkscape (http://www.inkscape.org/) -->

<svg
   width="839.17188"
   height="731.19385"
   viewBox="0 0 839.17188 731.19385"
   version="1.1"
   id="svg1"
   sodipodi:docname="Verity.svg"
   inkscape:version="1.3.2 (091e20e, 2023-11-25, custom)"
   xmlns:inkscape="http://www.inkscape.org/namespaces/inkscape"
   xmlns:sodipodi="http://sodipodi.sourceforge.net/DTD/sodipodi-0.dtd"
   xmlns:xlink="http://www.w3.org/1999/xlink"
   xmlns="http://www.w3.org/2000/svg"
   xmlns:svg="http://www.w3.org/2000/svg">
  <sodipodi:namedview
     id="namedview1"
     pagecolor="#ffffff"
     bordercolor="#000000"
     borderopacity="0.25"
     inkscape:showpageshadow="2"
     inkscape:pageopacity="0.0"
     inkscape:pagecheckerboard="0"
     inkscape:deskcolor="#d1d1d1"
     inkscape:document-units="px"
     inkscape:zoom="0.53290808"
     inkscape:cx="992.6665"
     inkscape:cy="571.3931"
     inkscape:window-width="1920"
     inkscape:window-height="1147"
     inkscape:window-x="-8"
     inkscape:window-y="-8"
     inkscape:window-maximized="1"
     inkscape:current-layer="layer1" />
  <defs
     id="defs1" />
  <g
     inkscape:groupmode="layer"
     id="layer2"
     inkscape:label="knight"
     style="display:none"
     transform="matrix(0.37165127,0,0,0.37165127,335.91077,-551.34089)">
    <path
       style="fill:#000000;stroke-width:2.69069"
       d="m 978.12079,1201.137 c 0,0 16.40951,104.4993 45.44171,243.349 17.4241,83.3332 45.8377,233.4826 45.8377,233.4826 0,0 -71.79761,-81.7596 -146.96152,-44.9977 -47.80929,23.3831 -66.21979,61.6719 -66.21979,61.6719 0,0 13.83242,-78.8317 -17.72431,-184.8623 -31.55674,-106.0306 -78.04414,-209.7162 -78.04414,-209.7162 0,0 53.22182,-11.7952 101.03411,-43.44 46.17073,-30.5583 54.00845,-61.1488 54.00845,-61.1488 0,0 -8.5772,9.0364 23.98313,2.5244 18.93403,-3.7868 38.64466,3.1371 38.64466,3.1371 z"
       id="path39"
       sodipodi:nodetypes="cscscscscsc" />
    <path
       style="fill:#000000;stroke-width:2.40645"
       d="m 994.43087,1905.5401 c 70.73983,-25.9653 95.23123,-21.7189 114.02133,-66.6065 20.3206,-48.5437 2.0597,-65.3233 -46.2859,-127.5684 -90.31386,-116.2791 -155.79142,-82.4113 -181.75665,38.3835 -25.96522,120.7948 43.28138,181.7566 114.02122,155.7914 z"
       id="path40"
       sodipodi:nodetypes="zsssz" />
    <path
       style="fill:#000000;stroke-width:2.69069"
       d="m 1026.2664,1917.7473 c 63.7455,-20.1966 93.012,-67.6398 93.012,-67.6398 0,0 13.0186,163.5722 10.4941,256.9801 -3.2803,121.3701 -12.6227,230.5622 -12.6227,230.5622 0,0 -46.7039,-0.8291 -83.3098,13.0559 -36.60576,13.8849 -59.32664,11.9915 -59.32664,11.9915 0,0 9.75478,-29.1405 -16.75291,-108.6635 -17.80205,-53.4061 -41.76908,-73.2775 -52.49246,-165.6635 -8.20475,-70.6871 6.40104,-135.1525 20.28602,-154.0865 13.88495,-18.9341 36.96693,3.6601 100.71239,-16.5364 z"
       id="path41"
       sodipodi:nodetypes="zcscscsssz" />
    <path
       style="fill:#000000;stroke-width:2.69069"
       d="m 1013.8603,2472.9293 c 123.0713,1.8934 243.2582,7.3552 179.2423,-61.8512 -93.408,-100.9816 -135.136,-54.51 -219.63491,-27.7699 -99.71929,31.5565 -82.67867,87.7277 40.39261,89.6211 z"
       id="path42"
       sodipodi:nodetypes="zssz" />
    <use
       x="0"
       y="0"
       xlink:href="#path39"
       id="use42"
       transform="matrix(-1,0,0,1,1313.249,0)" />
    <use
       x="0"
       y="0"
       xlink:href="#path40"
       id="use43"
       transform="matrix(-1,0,0,1,1311.345,-5.3553558)" />
    <use
       x="0"
       y="0"
       xlink:href="#path41"
       id="use44"
       transform="matrix(-1,0,0,1,1308.4861,-7.1404739)" />
    <use
       x="0"
       y="0"
       xlink:href="#path42"
       id="use45"
       transform="matrix(-1,0,0,1,1310.9614,-10.710712)" />
    <path
       style="fill:#000000;stroke-width:2.69069"
       d="m 1262.4269,1411.8463 c 30.4213,36.9121 87.3593,33.04 44.2427,67.3598 -38.3646,30.5372 -79.2691,33.2784 -100.9181,29.9509 -41.4727,-6.3744 -93.224,-39.1266 -79.5755,-75.1127 12.9734,-34.2063 9.9632,-55.049 45.8377,-53.501 43.2343,1.8657 90.4132,31.303 90.4132,31.303 z"
       id="path46"
       sodipodi:nodetypes="cssssc" />
    <path
       style="fill:#000000;stroke-width:3.44291"
       d="m -26.520087,1305.8149 19.8409861,-193.8972 -18.0536621,-78.7032 -61.662826,-12.4818 -51.981741,191.6607 -24.0986,-135.6787 -66.09261,-33.924 -38.83095,70.8094 95.31381,400.4272 -47.82159,595.2318 89.47467,-13.3132 92.768761,-564.0651 9.136717,-4.5683 -81.347928,554.9284 83.892929,-8.7448 117.407675,-494.1068 69.404086,-93.5838 36.98621,-147.6875 -29.69425,-141.6187 -41.11508,27.4101 -57.104358,148.4712 z"
       id="path47"
       sodipodi:nodetypes="cccccccccccccccccccccc" />
  </g>
  <g
     inkscape:groupmode="layer"
     id="layer3"
     inkscape:label="Ogre"
     style="display:inline"
     transform="translate(66.29364,-652.16309)">
    <path
       style="fill:#000000"
       d="m 384.79613,652.82654 c 32.50864,2.65376 56.72065,20.54465 102.83344,40.46994 53.73877,23.22046 133.35177,25.21077 112.78509,104.82377 -18.26034,70.68518 -16.38358,62.94373 -45.77747,89.56462 -35.16241,31.8452 -31.8452,45.77747 -61.70008,84.25708 -56.21716,72.45765 -140.30825,169.33635 -139.32273,83.59365 0.66343,-57.71943 19.90324,-110.13131 79.61298,-147.94748 59.70975,-37.81618 87.5743,-79.613 90.22806,-99.51625 2.65377,-19.90325 -43.78714,-80.27643 -85.58397,-97.52591 -41.79682,-17.24948 -81.60331,-15.92261 -83.59364,-39.80651 -1.99032,-23.88389 30.51832,-17.91291 30.51832,-17.91291 z"
       id="path17"
       sodipodi:nodetypes="csssssssssc" />
    <path
       style="fill:#000000"
       d="m 595.12782,847.81997 c 9.23249,-58.45573 27.07192,-97.94009 46.63991,-124.10245 19.56799,-26.16237 58.12966,-75.96586 40.13846,3.01885 -27.55353,120.96517 -78.15731,232.59735 -86.77837,121.0836 z"
       id="path18"
       sodipodi:nodetypes="cssc" />
    <path
       style="fill:#000000"
       d="m 354.27782,691.9696 c 35.1624,0 87.34121,27.81723 125.39046,60.37318 84.1862,72.03194 -28.6508,110.72692 -68.99793,161.21631 -50.30654,62.95237 -88.61207,35.32173 -139.32273,-15.9226 C 221.80006,847.56749 155.93559,826.36253 233.53144,753.66966 278.70761,711.348 354.27782,691.9696 354.27782,691.9696 Z"
       id="path19"
       sodipodi:nodetypes="cssssc" />
    <use
       x="0"
       y="0"
       xlink:href="#path17"
       id="use19"
       transform="matrix(-1,0,0,1,705.00478,3.9806496)" />
    <use
       x="0"
       y="0"
       xlink:href="#path18"
       id="use20"
       transform="matrix(-1,0,0,1,706.9951,16.58604)"
       style="display:inline" />
    <path
       style="display:inline;fill:#efdb5c;fill-opacity:1"
       id="path20"
       sodipodi:type="arc"
       sodipodi:cx="352.28748"
       sodipodi:cy="770.91919"
       sodipodi:rx="8.8469248"
       sodipodi:ry="8.6796331"
       sodipodi:start="4.1192763"
       sodipodi:end="4.1143112"
       sodipodi:arc-type="arc"
       d="m 347.34253,763.722 a 8.8469248,8.6796331 0 0 1 12.27472,2.33682 8.8469248,8.6796331 0 0 1 -2.36664,12.0455 8.8469248,8.6796331 0 0 1 -12.28058,-2.30693 8.8469248,8.6796331 0 0 1 2.33614,-12.05122"
       sodipodi:open="true" />
    <path
       style="fill:#efdb5c;fill-opacity:1"
       id="path20-0"
       sodipodi:type="arc"
       sodipodi:cx="388.75986"
       sodipodi:cy="803.32855"
       sodipodi:rx="8.8469248"
       sodipodi:ry="8.6796331"
       sodipodi:start="4.1192763"
       sodipodi:end="4.1143112"
       sodipodi:arc-type="arc"
       d="m 383.81491,796.13136 a 8.8469248,8.6796331 0 0 1 12.27472,2.33683 8.8469248,8.6796331 0 0 1 -2.36663,12.04549 8.8469248,8.6796331 0 0 1 -12.28059,-2.30692 8.8469248,8.6796331 0 0 1 2.33614,-12.05123"
       sodipodi:open="true" />
    <path
       style="fill:#efdb5c;fill-opacity:1"
       id="path20-6"
       sodipodi:type="arc"
       sodipodi:cx="332.63132"
       sodipodi:cy="789.88763"
       sodipodi:rx="8.8469248"
       sodipodi:ry="8.6796331"
       sodipodi:start="4.1192763"
       sodipodi:end="4.1143112"
       sodipodi:arc-type="arc"
       d="m 327.68637,782.69044 a 8.8469248,8.6796331 0 0 1 12.27472,2.33683 8.8469248,8.6796331 0 0 1 -2.36663,12.04549 8.8469248,8.6796331 0 0 1 -12.28059,-2.30692 8.8469248,8.6796331 0 0 1 2.33614,-12.05122"
       sodipodi:open="true" />
    <path
       style="fill:#efdb5c;fill-opacity:1"
       id="path20-4"
       sodipodi:type="arc"
       sodipodi:cx="304.66034"
       sodipodi:cy="783.58496"
       sodipodi:rx="8.8469248"
       sodipodi:ry="8.6796331"
       sodipodi:start="4.1192763"
       sodipodi:end="4.1143112"
       sodipodi:arc-type="arc"
       d="m 299.7154,776.38777 a 8.8469248,8.6796331 0 0 1 12.27471,2.33683 8.8469248,8.6796331 0 0 1 -2.36663,12.04549 8.8469248,8.6796331 0 0 1 -12.28059,-2.30693 8.8469248,8.6796331 0 0 1 2.33614,-12.05122"
       sodipodi:open="true" />
    <path
       style="fill:#efdb5c;fill-opacity:1"
       id="path20-9"
       sodipodi:type="arc"
       sodipodi:cx="340.44266"
       sodipodi:cy="822.11292"
       sodipodi:rx="8.8469248"
       sodipodi:ry="8.6796331"
       sodipodi:start="4.1192763"
       sodipodi:end="4.1143112"
       sodipodi:arc-type="arc"
       d="m 335.49772,814.91572 a 8.8469248,8.6796331 0 0 1 12.27471,2.33683 8.8469248,8.6796331 0 0 1 -2.36663,12.04549 8.8469248,8.6796331 0 0 1 -12.28059,-2.30692 8.8469248,8.6796331 0 0 1 2.33614,-12.05122"
       sodipodi:open="true" />
    <path
       style="fill:#efdb5c;fill-opacity:1"
       id="path20-5"
       sodipodi:type="arc"
       sodipodi:cx="359.1351"
       sodipodi:cy="801.15643"
       sodipodi:rx="8.8469248"
       sodipodi:ry="8.6796331"
       sodipodi:start="4.1192763"
       sodipodi:end="4.1143112"
       sodipodi:arc-type="arc"
       d="m 354.19016,793.95924 a 8.8469248,8.6796331 0 0 1 12.27471,2.33683 8.8469248,8.6796331 0 0 1 -2.36663,12.04549 8.8469248,8.6796331 0 0 1 -12.28059,-2.30692 8.8469248,8.6796331 0 0 1 2.33615,-12.05122"
       sodipodi:open="true" />
    <path
       style="display:inline;fill:#efdb5c;fill-opacity:1"
       id="path20-95"
       sodipodi:type="arc"
       sodipodi:cx="380.45715"
       sodipodi:cy="780.89734"
       sodipodi:rx="8.8469248"
       sodipodi:ry="8.6796331"
       sodipodi:start="4.1192763"
       sodipodi:end="4.1143112"
       sodipodi:arc-type="arc"
       d="m 375.51221,773.70014 a 8.8469248,8.6796331 0 0 1 12.27471,2.33683 8.8469248,8.6796331 0 0 1 -2.36663,12.0455 8.8469248,8.6796331 0 0 1 -12.28058,-2.30693 8.8469248,8.6796331 0 0 1 2.33614,-12.05122"
       sodipodi:open="true" />
    <path
       style="display:none;fill:#000000"
       d="m 469.38996,680.20005 c 24.62546,14.35022 63.59783,6.31397 145.75377,-2.31562 45.3668,-4.76529 123.71618,-35.50252 140.45761,-56.16493 92.87607,-114.62841 -4.33304,-30.41828 -70.32001,-5.16129 -50.14326,19.19269 -165.05746,33.33442 -286.38283,22.98092 -27.67113,-2.36136 37.34241,21.34367 70.49146,40.66092 z"
       id="path21"
       sodipodi:nodetypes="ssssss" />
    <use
       x="0"
       y="0"
       xlink:href="#path21"
       id="use21"
       transform="matrix(-1,0,0,1,703.64199,5.6294887)"
       style="display:none" />
    <path
       style="fill:#000000"
       d="m 658.99975,838.51901 c 16.2917,-36.80552 14.19647,-116.4773 70.04665,-58.3519 28.43442,29.59278 68.75773,-1.9871 23.42859,174.03123 -16.33072,63.41406 -22.25869,89.64716 -25.3327,119.15746 -2.34563,22.518 27.67831,93.8249 -38.46817,94.7631 -65.91156,0.9349 -25.67649,-11.6445 -7.97511,-15.9503 17.35759,-4.222 22.04883,0.9383 22.04883,-21.5796 0,-22.518 -4.14383,5.8865 -7.46104,7.5451 -3.31721,1.6586 -13.60055,7.6296 -32.17692,12.6054 -18.57636,4.9758 -53.52087,0.01 -18.02674,-12.264 35.49412,-12.2736 35.13883,-23.2107 33.61762,-33.1485 -2.72709,-17.8156 -5.97097,-26.2392 -21.23013,-20.2683 -15.25916,5.971 -14.92744,5.6393 -16.58604,22.2253 -1.6586,16.5861 -10.28335,36.821 -17.24948,1.6586 -6.96614,-35.1624 -2.59281,-31.2387 15.98356,-43.8441 18.57636,-12.6054 38.73472,-22.7048 46.2407,-101.98681 7.50599,-79.28197 -43.15133,-87.78715 -26.85962,-124.59268 z"
       id="path22"
       sodipodi:nodetypes="zsssssssssssssssz" />
    <use
       x="0"
       y="0"
       xlink:href="#path22"
       id="use22"
       transform="matrix(-1,0,0,1,706.58458,15.01197)" />
    <path
       style="fill:#000000"
       d="m 428.58328,1066.8141 c 47.10435,-58.3829 47.26674,-85.01113 90.8915,-6.6344 39.14305,70.3248 29.19143,82.9302 39.80649,116.7657 10.61507,33.8355 -19.90325,49.0947 -17.91292,111.4582 1.99032,62.3635 4.64409,41.7968 29.85487,63.6903 25.21078,21.8936 27.86454,27.2012 -22.55702,29.855 -50.42156,2.6537 -82.12606,4.3292 -65.68072,-21.8935 8.8964,-14.1857 -17.23538,-46.2274 -28.52798,-84.2572 -8.61354,-29.0077 -5.30753,-33.1721 -5.30753,-60.3732 0,-27.2011 -60.37319,-33.8355 -72.97858,-70.9882 -12.60539,-37.1527 52.41189,-77.6227 52.41189,-77.6227 z"
       id="path23"
       sodipodi:nodetypes="csssssssssc" />
    <use
       x="0"
       y="0"
       xlink:href="#path23"
       id="use23"
       transform="matrix(-1,0,0,1,704.63999,-0.93824812)" />
  </g>
  <g
     inkscape:groupmode="layer"
     id="layer4"
     inkscape:label="shapes"
     style="display:none"
     transform="translate(66.29364,-652.16309)">
    <path
       style="fill:none;stroke:#000000;stroke-opacity:1"
       id="path74"
       sodipodi:type="arc"
       sodipodi:cx="257.74707"
       sodipodi:cy="723.15137"
       sodipodi:rx="54.40221"
       sodipodi:ry="13.600553"
       sodipodi:start="4.1192763"
       sodipodi:end="4.1143112"
       sodipodi:open="true"
       sodipodi:arc-type="arc"
       d="m 227.33924,711.87372 a 54.40221,13.600553 0 0 1 75.48063,3.6617 54.40221,13.600553 0 0 1 -14.55307,18.87468 54.40221,13.600553 0 0 1 -75.51676,-3.61483 54.40221,13.600553 0 0 1 14.3656,-18.88366" />
    <path
       style="fill:none;stroke:#000000;stroke-opacity:1"
       d="m 312.481,722.48791 -54.39412,-94.21338 -54.19382,93.86644 53.9632,-93.46701 z"
       id="path75" />
    <path
       style="fill:none;stroke:#000000;stroke-opacity:1"
       id="path76"
       sodipodi:type="arc"
       sodipodi:cx="407.19968"
       sodipodi:cy="690.31604"
       sodipodi:rx="58.640507"
       sodipodi:ry="13.370035"
       sodipodi:start="4.1192763"
       sodipodi:end="4.1143112"
       sodipodi:open="true"
       sodipodi:arc-type="arc"
       d="m 374.42287,679.22954 a 58.640507,13.370035 0 0 1 81.36108,3.59963 58.640507,13.370035 0 0 1 -15.68686,18.55478 58.640507,13.370035 0 0 1 -81.40002,-3.55357 58.640507,13.370035 0 0 1 15.48478,-18.5636" />
    <use
       x="0"
       y="0"
       xlink:href="#path76"
       id="use76"
       transform="rotate(-89.467615,407.19974,690.31601)" />
    <path
       style="fill:none;stroke:#000000;stroke-opacity:1"
       id="path77"
       sodipodi:type="arc"
       sodipodi:cx="407.19968"
       sodipodi:cy="690.5506"
       sodipodi:rx="59.109631"
       sodipodi:ry="58.405945"
       sodipodi:start="4.1192763"
       sodipodi:end="4.1143112"
       sodipodi:open="true"
       sodipodi:arc-type="arc"
       d="m 374.16066,642.1201 a 59.109631,58.405945 0 0 1 82.01196,15.72471 59.109631,58.405945 0 0 1 -15.81235,81.05509 59.109631,58.405945 0 0 1 -82.05122,-15.52348 59.109631,58.405945 0 0 1 15.60866,-81.09363" />
    <path
       style="fill:none;stroke:#000000;stroke-opacity:1"
       d="m 493.51851,730.42616 111.1824,28.14744 -10.78985,-49.72715 z"
       id="path78" />
    <path
       style="fill:none;stroke:#000000;stroke-opacity:1"
       d="m 492.58026,730.42616 66.85017,-84.91146 34.24606,63.56631 -34.71518,-63.56631 45.27048,113.0589 z"
       id="path79"
       sodipodi:nodetypes="cccccc" />
  </g>
</svg>
