<?xml version="1.0" encoding="UTF-8" standalone="no"?>
<!-- Created with Inkscape (http://www.inkscape.org/) -->

<svg
   width="637.49689"
   height="878.61884"
   viewBox="0 0 637.49689 878.61884"
   version="1.1"
   id="svg1"
   sodipodi:docname="Verity.svg"
   inkscape:version="1.3.2 (091e20e, 2023-11-25, custom)"
   xmlns:inkscape="http://www.inkscape.org/namespaces/inkscape"
   xmlns:sodipodi="http://sodipodi.sourceforge.net/DTD/sodipodi-0.dtd"
   xmlns:xlink="http://www.w3.org/1999/xlink"
   xmlns="http://www.w3.org/2000/svg"
   xmlns:svg="http://www.w3.org/2000/svg">
  <sodipodi:namedview
     id="namedview1"
     pagecolor="#ffffff"
     bordercolor="#000000"
     borderopacity="0.25"
     inkscape:showpageshadow="2"
     inkscape:pageopacity="0.0"
     inkscape:pagecheckerboard="0"
     inkscape:deskcolor="#d1d1d1"
     inkscape:document-units="px"
     inkscape:zoom="0.53290808"
     inkscape:cx="992.6665"
     inkscape:cy="571.3931"
     inkscape:window-width="1920"
     inkscape:window-height="1147"
     inkscape:window-x="-8"
     inkscape:window-y="-8"
     inkscape:window-maximized="1"
     inkscape:current-layer="layer2" />
  <defs
     id="defs1" />
  <g
     inkscape:groupmode="layer"
     id="layer2"
     inkscape:label="knight"
     style="display:inline"
     transform="matrix(0.37165127,0,0,0.37165127,99.37936,-40.79803)">
    <use
       x="0"
       y="0"
       xlink:href="#path91"
       id="use93"
       transform="matrix(1.8768124,0,0,10.531799,-539.39126,-3685.8233)"
       style="display:inline" />
    <path
       style="fill:#000000"
       d="m 662.40317,110.71328 c 0,0 -17.82672,71.30685 -46.91241,85.38058 -29.08569,14.07372 -91.34002,16.94672 -143.55196,-9.38249 -22.13327,-11.16127 -33.77693,-59.10962 -24.39445,-72.2451 9.38248,-13.13547 -23.4562,24.39445 -18.76496,51.60364 4.69124,27.2092 -0.65954,26.54966 -15.01197,12.19723 -23.45621,-23.45621 -3.75299,-66.61561 -13.13548,-50.6654 -9.38248,15.95022 -40.34467,70.36862 -28.14744,97.57781 12.19722,27.2092 64.73912,47.85065 118.21926,64.73911 53.48014,16.88847 133.23124,75.05986 150.1197,74.12161 16.88847,-0.93825 21.57971,-253.32699 21.57971,-253.32699 z"
       id="path3"
       sodipodi:nodetypes="csssssssssc" />
    <path
       style="fill:#000000"
       d="m 640.76997,392.32297 c -29.08569,-25.3327 -31.57641,-32.19064 -68.16809,-43.44962 -36.59168,-11.25897 -107.89854,-19.70321 -121.97226,-3.75299 -14.07372,15.95022 -2.81474,56.29489 11.25898,48.7889 14.07372,-7.50598 5.62949,-15.01196 30.96219,-22.51795 25.3327,-7.50598 22.51796,-3.753 50.6654,12.19722 25.81356,14.62769 33.30509,32.83147 43.15941,69.43037 8.44003,31.34622 65.62661,105.42543 62.98098,70.02768 -4.35464,-58.26386 3.97556,-126.62692 -8.88661,-130.72361 z"
       id="path4"
       sodipodi:nodetypes="csssssssc" />
    <use
       x="0"
       y="0"
       xlink:href="#path3"
       id="use4"
       transform="matrix(-1,0,0,1,1326.6923,-0.93824811)" />
    <use
       x="0"
       y="0"
       xlink:href="#path4"
       id="use5"
       transform="matrix(-1,0,0,1,1323.2451,-1.9123778)" />
    <path
       style="fill:#000000;stroke-width:2.69069"
       d="m 719.90017,542.91925 c 28.40884,-45.87681 54.52493,-80.96468 112.58933,-60.76835 58.06441,20.19629 321.9158,80.17783 106.36769,227.28282 -207.9417,141.91386 -252.27447,83.97487 -230.59933,55.46554 23.86682,-31.39205 -21.54829,-50.92393 -59.41637,-50.92393 -37.86808,0 -71.80709,-3.39084 -51.61079,47.09996 20.19633,50.49078 -76.98351,35.65271 -213.10695,-54.5467 -107.18531,-71.02415 -100.00144,-168.0242 24.78146,-213.66698 55.56162,-20.32319 100.32752,-21.04966 164.58071,28.94248 78.30474,67.87535 87.19067,116.75402 146.41425,21.11516 z"
       id="path5"
       sodipodi:nodetypes="ssssssssss" />
    <path
       style="fill:#000000;stroke-width:2.69069"
       d="m 954.33924,515.95559 c 0,0 94.61126,42.84284 85.68566,98.18152 -8.9256,55.33867 -91.04094,105.32199 -91.04094,105.32199 0,0 93.71874,44.62796 187.43744,32.13214 93.7187,-12.49583 148.1649,-65.15684 148.1649,-65.15684 0,0 -30.3471,-11.60327 -10.7108,-65.15683 19.6363,-53.55356 58.9089,-65.15683 66.0494,-110.67736 7.1405,-45.52052 -3.5702,-102.64431 -3.5702,-102.64431 0,0 -14.281,31.23958 -137.4541,79.43777 -123.1732,48.19822 -244.56136,28.56192 -244.56136,28.56192 z"
       id="path35"
       sodipodi:nodetypes="cscscsscsc" />
    <path
       style="fill:#000000;stroke-width:2.69069"
       d="m 949.57428,823.10589 c 0,0 -42.81986,68.12294 -135.80225,148.03348 -43.65086,37.51423 -115.54251,78.50363 -115.54251,78.50363 0,0 -11.23358,41.2557 -10.92727,69.7651 0.33903,31.5548 8.05928,72.121 8.05928,72.121 0,0 36.94145,-6.9487 92.87423,-34.8996 55.93279,-27.951 128.08272,-116.3458 91.76732,-60.8138 -36.31539,55.5319 -92.93672,79.5608 -92.93672,79.5608 -45.68786,26.7804 -61.50004,32.5653 -61.50004,32.5653 0,0 -0.29205,26.3655 -3.20055,43.7046 -3.8766,23.1106 -8.68275,36.223 -8.68275,36.223 0,0 28.73362,8.5744 106.99432,-22.9823 78.26071,-31.5568 74.55594,-64.9751 74.55594,-64.9751 0,0 2.5404,-87.2591 12.33884,-117.0849 9.79844,-29.8258 26.85493,-2.2182 28.11719,-52.709 2.52452,-100.98156 13.88497,-207.01221 13.88497,-207.01221 z"
       id="path36"
       sodipodi:nodetypes="cscsczzccscscssc" />
    <use
       x="0"
       y="0"
       xlink:href="#path36"
       id="use36"
       transform="matrix(-1,0,0,1,1316.9071,-1.7851186)" />
    <use
       x="0"
       y="0"
       xlink:href="#path35"
       id="use37"
       transform="matrix(-1,0,0,1,1329.1846,-12.49583)" />
    <path
       style="fill:#000000;stroke-width:2.69069"
       d="m 1155.1652,754.2689 c 81.7257,-10.26572 94.6112,-55.33866 149.95,34.80982 62.7189,102.171 131.2062,107.99967 40.1651,166.01602 -91.041,58.01636 -99.9667,27.66932 -155.3053,-34.80979 C 1076.94,792.66471 1073.4395,764.53461 1155.1652,754.2689 Z"
       id="path37"
       sodipodi:nodetypes="zsssz" />
    <path
       style="fill:#000000;stroke-width:2.69069"
       d="m 1265.5625,1000.6153 c 49.1468,-4.93841 89.7829,-29.38324 106.8381,-46.69311 19.3487,-19.63768 58.2328,-51.98501 58.2328,-51.98501 0,0 40.8138,60.87418 -3.0211,261.27712 -57.0158,260.663 -78.8995,310.3895 -144.9489,261.2988 -73.0129,-54.2664 -52.2855,-30.2856 -46.3759,-114.939 8.7322,-125.0867 -19.8718,-304.0204 29.275,-308.9588 z"
       id="path38"
       sodipodi:nodetypes="zscsssz" />
    <path
       style="fill:#000000;stroke-width:2.69069"
       d="m 978.12079,1201.137 c 0,0 16.40951,104.4993 45.44171,243.349 17.4241,83.3332 45.8377,233.4826 45.8377,233.4826 0,0 -71.79761,-81.7596 -146.96152,-44.9977 -47.80929,23.3831 -66.21979,61.6719 -66.21979,61.6719 0,0 13.83242,-78.8317 -17.72431,-184.8623 -31.55674,-106.0306 -78.04414,-209.7162 -78.04414,-209.7162 0,0 53.22182,-11.7952 101.03411,-43.44 46.17073,-30.5583 54.00845,-61.1488 54.00845,-61.1488 0,0 -8.5772,9.0364 23.98313,2.5244 18.93403,-3.7868 38.64466,3.1371 38.64466,3.1371 z"
       id="path39"
       sodipodi:nodetypes="cscscscscsc" />
    <path
       style="fill:#000000;stroke-width:2.40645"
       d="m 994.43087,1905.5401 c 70.73983,-25.9653 95.23123,-21.7189 114.02133,-66.6065 20.3206,-48.5437 2.0597,-65.3233 -46.2859,-127.5684 -90.31386,-116.2791 -155.79142,-82.4113 -181.75665,38.3835 -25.96522,120.7948 43.28138,181.7566 114.02122,155.7914 z"
       id="path40"
       sodipodi:nodetypes="zsssz" />
    <path
       style="fill:#000000;stroke-width:2.69069"
       d="m 1026.2664,1917.7473 c 63.7455,-20.1966 93.012,-67.6398 93.012,-67.6398 0,0 13.0186,163.5722 10.4941,256.9801 -3.2803,121.3701 -12.6227,230.5622 -12.6227,230.5622 0,0 -46.7039,-0.8291 -83.3098,13.0559 -36.60576,13.8849 -59.32664,11.9915 -59.32664,11.9915 0,0 9.75478,-29.1405 -16.75291,-108.6635 -17.80205,-53.4061 -41.76908,-73.2775 -52.49246,-165.6635 -8.20475,-70.6871 6.40104,-135.1525 20.28602,-154.0865 13.88495,-18.9341 36.96693,3.6601 100.71239,-16.5364 z"
       id="path41"
       sodipodi:nodetypes="zcscscsssz" />
    <path
       style="fill:#000000;stroke-width:2.69069"
       d="m 1013.8603,2472.9293 c 123.0713,1.8934 243.2582,7.3552 179.2423,-61.8512 -93.408,-100.9816 -135.136,-54.51 -219.63491,-27.7699 -99.71929,31.5565 -82.67867,87.7277 40.39261,89.6211 z"
       id="path42"
       sodipodi:nodetypes="zssz" />
    <use
       x="0"
       y="0"
       xlink:href="#path39"
       id="use42"
       transform="matrix(-1,0,0,1,1313.249,0)" />
    <use
       x="0"
       y="0"
       xlink:href="#path40"
       id="use43"
       transform="matrix(-1,0,0,1,1311.345,-5.3553558)" />
    <use
       x="0"
       y="0"
       xlink:href="#path41"
       id="use44"
       transform="matrix(-1,0,0,1,1308.4861,-7.1404739)" />
    <use
       x="0"
       y="0"
       xlink:href="#path42"
       id="use45"
       transform="matrix(-1,0,0,1,1310.9614,-10.710712)" />
    <path
       style="fill:#000000;stroke-width:2.69069"
       d="m 794.61922,808.06531 c 69.61963,-24.09909 147.22426,-77.8955 147.22426,-77.8955 0,0 52.53213,72.44807 -103.32032,202.89096 -65.46761,54.79403 -125.39143,89.30853 -178.945,87.52343 C 606.0246,1018.799 545.38236,1002.9134 447.61934,894.90817 346.88665,783.6221 379.5311,721.24421 379.5311,721.24421 c 0,0 123.25495,75.22269 203.19725,94.73816 58.13233,14.19124 142.27123,16.18204 211.89087,-7.91706 z"
       id="path45"
       sodipodi:nodetypes="zcssscsz" />
    <path
       style="fill:#000000;stroke-width:2.69069"
       d="m 1262.4269,1411.8463 c 30.4213,36.9121 87.3593,33.04 44.2427,67.3598 -38.3646,30.5372 -79.2691,33.2784 -100.9181,29.9509 -41.4727,-6.3744 -93.224,-39.1266 -79.5755,-75.1127 12.9734,-34.2063 9.9632,-55.049 45.8377,-53.501 43.2343,1.8657 90.4132,31.303 90.4132,31.303 z"
       id="path46"
       sodipodi:nodetypes="cssssc" />
    <path
       style="fill:#000000;stroke-width:3.44291"
       d="m -26.520087,1305.8149 19.8409861,-193.8972 -18.0536621,-78.7032 -61.662826,-12.4818 -51.981741,191.6607 -24.0986,-135.6787 -66.09261,-33.924 -38.83095,70.8094 95.31381,400.4272 -47.82159,595.2318 89.47467,-13.3132 92.768761,-564.0651 9.136717,-4.5683 -81.347928,554.9284 83.892929,-8.7448 117.407675,-494.1068 69.404086,-93.5838 36.98621,-147.6875 -29.69425,-141.6187 -41.11508,27.4101 -57.104358,148.4712 z"
       id="path47"
       sodipodi:nodetypes="cccccccccccccccccccccc" />
    <path
       style="fill:#000000;stroke-width:2.69069"
       d="M 162.24627,1108.7745 C 154.75436,1044.5094 98.0979,1053.7066 76.866753,1041.8851 34.797202,1018.4606 4.7489891,978.53963 4.7489891,978.53963 c 0,0 3.862105,91.97597 -0.765709,137.57477 -17.0648851,168.1436 -35.1268091,176.9832 12.4106039,215.8571 73.279499,59.9247 67.966534,-29.5928 101.915766,-107.3654 12.72638,-29.1542 51.42853,-51.5665 43.93662,-115.8316 z"
       id="path48"
       sodipodi:nodetypes="zscsssz" />
    <path
       style="fill:#000000;stroke-width:2.69069"
       d="M 190.64132,747.95755 C 108.91562,737.69183 74.337495,716.96702 53.314012,820.63546 25.938658,955.62546 -23.614602,962.7164 67.4265,1020.7328 c 91.041,58.0164 108.77492,19.8069 140.15806,-57.53069 62.54422,-154.1279 64.78246,-204.97885 -16.94324,-215.24456 z"
       id="path49"
       sodipodi:nodetypes="zsssz" />
    <path
       style="fill:#30eb45;fill-opacity:1;stroke:none;stroke-width:2.69069;stroke-dasharray:none;stroke-dashoffset:0;stroke-opacity:1"
       id="path91"
       sodipodi:type="arc"
       sodipodi:cx="640.37494"
       sodipodi:cy="373.43921"
       sodipodi:rx="11.156992"
       sodipodi:ry="11.156992"
       sodipodi:start="4.1192763"
       sodipodi:end="4.1143112"
       sodipodi:open="true"
       sodipodi:arc-type="arc"
       d="m 634.1388,364.18778 a 11.156992,11.156992 0 0 1 15.47982,3.00381 11.156992,11.156992 0 0 1 -2.98459,15.48354 11.156992,11.156992 0 0 1 -15.48724,-2.96537 11.156992,11.156992 0 0 1 2.94615,-15.49091" />
    <use
       x="0"
       y="0"
       xlink:href="#path91"
       id="use92"
       transform="translate(44.596251)" />
  </g>
</svg>
