<?xml version="1.0" encoding="UTF-8" standalone="no"?>
<!-- Created with Inkscape (http://www.inkscape.org/) -->

<svg
   width="247.70442"
   height="247.80162"
   viewBox="0 0 247.70442 247.80162"
   version="1.1"
   id="svg1"
   sodipodi:docname="Verity.svg"
   inkscape:version="1.3.2 (091e20e, 2023-11-25, custom)"
   xmlns:inkscape="http://www.inkscape.org/namespaces/inkscape"
   xmlns:sodipodi="http://sodipodi.sourceforge.net/DTD/sodipodi-0.dtd"
   xmlns:xlink="http://www.w3.org/1999/xlink"
   xmlns="http://www.w3.org/2000/svg"
   xmlns:svg="http://www.w3.org/2000/svg">
  <sodipodi:namedview
     id="namedview1"
     pagecolor="#ffffff"
     bordercolor="#000000"
     borderopacity="0.25"
     inkscape:showpageshadow="2"
     inkscape:pageopacity="0.0"
     inkscape:pagecheckerboard="0"
     inkscape:deskcolor="#d1d1d1"
     inkscape:document-units="px"
     inkscape:zoom="0.53290808"
     inkscape:cx="992.6665"
     inkscape:cy="571.3931"
     inkscape:window-width="1920"
     inkscape:window-height="1147"
     inkscape:window-x="-8"
     inkscape:window-y="-8"
     inkscape:window-maximized="1"
     inkscape:current-layer="layer2" />
  <defs
     id="defs1" />
  <g
     inkscape:groupmode="layer"
     id="layer5"
     inkscape:label="ghost"
     style="display:inline"
     transform="translate(-1493.5497,-691.57344)">
    <path
       style="fill:#000000;stroke:#000000;stroke-dasharray:none;stroke-dashoffset:0;stroke-opacity:1"
       d="m 1616.4353,815.19446 -0.07,-123.11539 9.6867,0.10842 46.4011,64.53191 -29.8802,47.46983 z"
       id="path85"
       sodipodi:nodetypes="cccccc" />
    <use
       x="0"
       y="0"
       xlink:href="#path85"
       id="use85"
       transform="matrix(-1,0,0,1,3233.8324,0.09715877)"
       style="display:inline" />
    <use
       x="0"
       y="0"
       xlink:href="#path85"
       id="use86"
       transform="matrix(1,0,0,-1,0.66344164,1630.9485)" />
    <use
       x="0"
       y="0"
       xlink:href="#use85"
       id="use87"
       transform="matrix(1,0,0,-1,0.70368615,1630.5765)" />
    <use
       x="0"
       y="0"
       xlink:href="#path85"
       id="use88"
       transform="rotate(90,1616.923,815.90455)" />
    <use
       x="0"
       y="0"
       xlink:href="#use85"
       id="use89"
       transform="rotate(90,1617.0688,815.38685)" />
    <use
       x="0"
       y="0"
       xlink:href="#use86"
       id="use90"
       transform="rotate(90,1616.9515,815.97325)" />
    <use
       x="0"
       y="0"
       xlink:href="#use87"
       id="use91"
       transform="rotate(90,1617.3033,815.6214)" />
    <path
       style="fill:#000000;stroke:#ffffff;stroke-dasharray:none;stroke-dashoffset:0;stroke-opacity:1"
       id="path82"
       sodipodi:type="arc"
       sodipodi:cx="1616.6014"
       sodipodi:cy="815.80676"
       sodipodi:rx="44.566784"
       sodipodi:ry="44.566784"
       sodipodi:start="4.1192763"
       sodipodi:end="4.1143112"
       sodipodi:open="true"
       sodipodi:arc-type="arc"
       d="m 1591.6911,778.85177 a 44.566784,44.566784 0 0 1 61.8344,11.99877 44.566784,44.566784 0 0 1 -11.922,61.84926 44.566784,44.566784 0 0 1 -61.864,-11.84523 44.566784,44.566784 0 0 1 11.7684,-61.87866" />
    <rect
       style="fill:#75f1ee;fill-opacity:1;stroke:#000000;stroke-width:1.28049;stroke-dasharray:none;stroke-dashoffset:0;stroke-opacity:1"
       id="rect82"
       width="42.650364"
       height="42.650364"
       x="545.02136"
       y="1698.8798"
       transform="rotate(-45)" />
    <rect
       style="fill:#000000;stroke:#000000;stroke-width:1.75399;stroke-dasharray:none;stroke-dashoffset:0;stroke-opacity:1"
       id="rect83"
       width="80.021561"
       height="7.9364324"
       x="-854.41016"
       y="1613.1682"
       transform="rotate(-90)" />
    <path
       style="fill:#000000;stroke:#000000;stroke-width:1.28049;stroke-dasharray:none;stroke-dashoffset:0;stroke-opacity:1"
       id="path83"
       sodipodi:type="arc"
       sodipodi:cx="1616.9603"
       sodipodi:cy="815.70386"
       sodipodi:rx="10.212059"
       sodipodi:ry="10.212059"
       sodipodi:start="4.1192763"
       sodipodi:end="4.1143112"
       sodipodi:open="true"
       sodipodi:arc-type="arc"
       d="m 1611.2524,807.23597 a 10.212059,10.212059 0 0 1 14.1687,2.7494 10.212059,10.212059 0 0 1 -2.7318,14.17218 10.212059,10.212059 0 0 1 -14.1755,-2.71422 10.212059,10.212059 0 0 1 2.6966,-14.17892" />
    <path
       style="fill:#75f1ee;fill-opacity:1;stroke:#000000;stroke-width:1.28049;stroke-dasharray:none;stroke-dashoffset:0;stroke-opacity:1"
       id="path84"
       sodipodi:type="arc"
       sodipodi:cx="1617.0115"
       sodipodi:cy="815.85425"
       sodipodi:rx="3.822891"
       sodipodi:ry="3.822891"
       sodipodi:start="4.1192763"
       sodipodi:end="4.1143112"
       sodipodi:open="true"
       sodipodi:arc-type="arc"
       d="m 1614.8747,812.68429 a 3.822891,3.822891 0 0 1 5.3041,1.02924 3.822891,3.822891 0 0 1 -1.0227,5.30536 3.822891,3.822891 0 0 1 -5.3066,-1.01607 3.822891,3.822891 0 0 1 1.0095,-5.30788" />
  </g>
</svg>
