<?xml version="1.0" encoding="UTF-8" standalone="no"?>
<!-- Created with Inkscape (http://www.inkscape.org/) -->

<svg
   width="280.24097"
   height="471.82275"
   viewBox="0 0 280.24097 471.82275"
   version="1.1"
   id="svg1"
   sodipodi:docname="Verity.svg"
   inkscape:version="1.3.2 (091e20e, 2023-11-25, custom)"
   inkscape:export-filename="Verity\Verity_Guardian_A.svg"
   inkscape:export-xdpi="96"
   inkscape:export-ydpi="96"
   xmlns:inkscape="http://www.inkscape.org/namespaces/inkscape"
   xmlns:sodipodi="http://sodipodi.sourceforge.net/DTD/sodipodi-0.dtd"
   xmlns:xlink="http://www.w3.org/1999/xlink"
   xmlns="http://www.w3.org/2000/svg"
   xmlns:svg="http://www.w3.org/2000/svg">
  <sodipodi:namedview
     id="namedview1"
     pagecolor="#ffffff"
     bordercolor="#000000"
     borderopacity="0.25"
     inkscape:showpageshadow="2"
     inkscape:pageopacity="0.0"
     inkscape:pagecheckerboard="0"
     inkscape:deskcolor="#d1d1d1"
     inkscape:document-units="px"
     inkscape:zoom="0.53290808"
     inkscape:cx="992.6665"
     inkscape:cy="571.3931"
     inkscape:window-width="1920"
     inkscape:window-height="1147"
     inkscape:window-x="-8"
     inkscape:window-y="-8"
     inkscape:window-maximized="1"
     inkscape:current-layer="layer1" />
  <defs
     id="defs1">
    <linearGradient
       id="linearGradient102"
       inkscape:collect="always">
      <stop
         style="stop-color:#ffff07;stop-opacity:1;"
         offset="0"
         id="stop103" />
      <stop
         style="stop-color:#ffff07;stop-opacity:0;"
         offset="1"
         id="stop104" />
    </linearGradient>
    <radialGradient
       inkscape:collect="always"
       xlink:href="#linearGradient102"
       id="radialGradient104"
       cx="1168.1189"
       cy="703.6861"
       fx="1168.1189"
       fy="703.6861"
       r="295.371"
       gradientTransform="matrix(1,0,0,0.8927695,0,14.420006)"
       gradientUnits="userSpaceOnUse" />
  </defs>
  <g
     inkscape:label="Layer 1"
     inkscape:groupmode="layer"
     id="layer1"
     style="display:none"
     transform="translate(-1015.7577,-226.11781)">
    <path
       style="display:inline;fill:#ffff07;fill-opacity:1;stroke:none;stroke-width:1;stroke-dasharray:none;stroke-dashoffset:0;stroke-opacity:1"
       id="path93"
       sodipodi:type="arc"
       sodipodi:cx="1175.6249"
       sodipodi:cy="698.05658"
       sodipodi:rx="166.06992"
       sodipodi:ry="40.344669"
       sodipodi:start="4.1192763"
       sodipodi:end="4.1143112"
       sodipodi:open="true"
       sodipodi:arc-type="arc"
       d="m 1082.801,664.60258 a 166.06992,40.344669 0 0 1 230.4145,10.86205 166.06992,40.344669 0 0 1 -44.4251,55.98986 166.06992,40.344669 0 0 1 -230.5249,-10.72305 166.06992,40.344669 0 0 1 43.8529,-56.01648" />
    <path
       style="display:none;fill:url(#radialGradient104);fill-opacity:1;stroke:none;stroke-width:1.26992;stroke-dasharray:none;stroke-dashoffset:0;stroke-opacity:1"
       id="path96"
       sodipodi:type="arc"
       sodipodi:cx="1168.1189"
       sodipodi:cy="642.64948"
       sodipodi:rx="295.371"
       sodipodi:ry="263.69821"
       sodipodi:start="4.1192763"
       sodipodi:end="4.1143112"
       sodipodi:open="true"
       sodipodi:arc-type="arc"
       d="m 1003.0228,423.98963 a 295.371,263.69821 0 0 1 409.8141,70.9958 295.371,263.69821 0 0 1 -79.0144,365.95731 295.371,263.69821 0 0 1 -410.0102,-70.0873 295.371,263.69821 0 0 1 77.9965,-366.1313" />
    <path
       style="fill:#000000"
       d="m 1293.7112,805.41811 c 0,0 -171.168,-29.85488 -258.0788,-124.06359 -57.60977,-62.44725 134.0151,-155.24533 134.0151,-155.24533 0,0 -230.87763,91.55494 -124.727,179.12923 106.1507,87.5743 228.8874,101.50657 228.8874,101.50657 z"
       id="path1"
       sodipodi:nodetypes="cscscc" />
    <path
       style="fill:#000000"
       d="m 1318.4935,791.78439 c 0,0 -180.0586,-54.77282 -264.7132,-132.02489 -80.46361,-73.42754 68.9979,-134.0152 68.9979,-134.0152 0,0 -173.15829,59.70974 -67.0077,147.28403 106.1508,87.5743 255.4251,123.40015 255.4251,123.40015 z"
       id="path1-6"
       sodipodi:nodetypes="cscscc" />
    <path
       style="display:inline;fill:#000000"
       d="m 1337.7042,770.6745 c 0,0 -116.8132,-37.10772 -232.8679,-112.78508 -124.97883,-81.49665 -48.4313,-124.06357 -48.4313,-124.06357 0,0 -94.20879,35.82583 43.787,132.02487 112.8894,78.697 232.8681,109.46787 232.8681,109.46787 z"
       id="path1-5"
       sodipodi:nodetypes="cscscc" />
    <use
       x="0"
       y="0"
       xlink:href="#path1"
       id="use94"
       transform="matrix(-1,0,0,1,2354.7172,0)" />
    <use
       x="0"
       y="0"
       xlink:href="#path1-6"
       id="use95"
       transform="matrix(-1,0,0,1,2354.7172,0)" />
    <use
       x="0"
       y="0"
       xlink:href="#path1-5"
       id="use96"
       transform="matrix(-1,0,0,1,2354.7172,0)" />
  </g>
  <g
     inkscape:groupmode="layer"
     id="layer6"
     inkscape:label="guardian"
     style="display:inline"
     transform="translate(-1015.7577,-226.11781)">
    <path
       style="display:none;fill:#5a1e0a;fill-opacity:1;stroke:none;stroke-width:0.874478;stroke-dasharray:none;stroke-dashoffset:0;stroke-opacity:1"
       d="m 1216.3,697.94057 47.5736,-1.16034 -55.4489,-228.75438 -1.3212,-95.86609 55.2869,143.26203 33.6083,-12.0427 -73.9969,-192.63076 -130.1516,0.63009 -54.8624,83.34193 -53.12787,-40.5291 -47.68015,-0.8517 112.25342,89.02974 49.3908,-60.56881 4.3556,83.49386 -35.5793,225.68425 48.5349,0.58016 38.507,-208.27929 z"
       id="path104"
       sodipodi:nodetypes="cccccccccccccccccc" />
    <path
       style="display:inline;fill:#5a1e0a;fill-opacity:1;stroke:none;stroke-width:0.874478;stroke-dasharray:none;stroke-dashoffset:0;stroke-opacity:1"
       d="m 1216.3,697.94057 47.5736,-1.16034 -50.8048,-230.74471 -5.9653,-93.87576 55.2869,143.26203 33.6083,-12.0427 -73.9969,-192.63076 -130.1516,0.63009 -76.0925,183.52161 31.3486,13.81342 57.3521,-140.1818 -2.2788,98.75301 -35.5793,223.69393 48.5349,0.58016 38.507,-208.27929 z"
       id="path107"
       sodipodi:nodetypes="cccccccccccccccc" />
    <path
       style="display:inline;fill:#5a1e0a;fill-opacity:1;stroke:none;stroke-width:1;stroke-dasharray:none;stroke-dashoffset:0;stroke-opacity:1"
       id="path105"
       sodipodi:type="arc"
       sodipodi:cx="1158.7365"
       sodipodi:cy="265.52423"
       sodipodi:rx="39.406422"
       sodipodi:ry="39.406422"
       sodipodi:start="4.1192763"
       sodipodi:end="4.1143112"
       sodipodi:open="true"
       sodipodi:arc-type="arc"
       d="m 1136.7104,232.84823 a 39.406422,39.406422 0 0 1 54.6747,10.60944 39.406422,39.406422 0 0 1 -10.5416,54.68778 39.406422,39.406422 0 0 1 -54.7008,-10.47368 39.406422,39.406422 0 0 1 10.4058,-54.71377" />
    <text
       xml:space="preserve"
       style="font-size:81.3545px;display:inline;fill:#ffffff;fill-opacity:1;stroke:none;stroke-width:6.77954;stroke-dasharray:none;stroke-dashoffset:0;stroke-opacity:1"
       x="1128.4901"
       y="294.62659"
       id="text109"><tspan
         sodipodi:role="line"
         id="tspan109"
         x="1128.4901"
         y="294.62659"
         style="stroke-width:6.77954">C</tspan></text>
    <path
       style="display:none;fill:#ffffff;fill-opacity:1;stroke:none;stroke-width:1;stroke-dasharray:none;stroke-dashoffset:0;stroke-opacity:1"
       id="path109"
       sodipodi:type="arc"
       sodipodi:cx="1173.9598"
       sodipodi:cy="255.75674"
       sodipodi:rx="5.3075328"
       sodipodi:ry="5.3075328"
       sodipodi:start="4.1192763"
       sodipodi:end="4.1143112"
       sodipodi:open="true"
       sodipodi:arc-type="arc"
       d="m 1170.9932,251.35571 a 5.3075328,5.3075328 0 0 1 7.364,1.42896 5.3075328,5.3075328 0 0 1 -1.4198,7.36573 5.3075328,5.3075328 0 0 1 -7.3675,-1.41067 5.3075328,5.3075328 0 0 1 1.4015,-7.36923" />
    <use
       x="0"
       y="0"
       xlink:href="#path109"
       id="use110"
       transform="translate(-28.527989,0.66344194)"
       style="display:none" />
    <path
       style="display:none;fill:#ffffff;fill-opacity:1;stroke:#ffffff;stroke-width:1;stroke-dasharray:none;stroke-dashoffset:0;stroke-opacity:1"
       d="m 1178.7095,279.71279 0.898,0.31993 c 0,0 -6.6343,7.40589 -18.305,7.69483 -11.6707,0.28895 -19.5195,-6.59417 -19.5195,-6.59417 l 0.4976,-1.32688 c 0,0 7.9149,7.10337 19.0254,7.12711 11.1105,0.0238 17.4035,-7.22082 17.4035,-7.22082 z"
       id="path115"
       sodipodi:nodetypes="cczcczc" />
  </g>
</svg>
